<?xml version="1.0" encoding="UTF-8"?>
<svg xmlns="http://www.w3.org/2000/svg" width="97" height="17" viewBox="0 0 97 17" fill="none">
  <path d="M0.909 17V0.899999H3.991L10.845 12.262H9.212L15.951 0.899999H19.01L19.056 17H15.56L15.537 6.259H16.181L10.799 15.298H9.12L3.623 6.259H4.405V17H0.909ZM28.8098 17L35.9858 0.899999H39.6658L46.8648 17H42.9548L37.0668 2.786H38.5388L32.6278 17H28.8098ZM32.3978 13.55L33.3868 10.721H41.6668L42.6788 13.55H32.3978ZM56.5852 17V0.899999H63.5542C64.9955 0.899999 66.2375 1.13767 67.2802 1.613C68.3228 2.073 69.1278 2.74 69.6952 3.614C70.2625 4.488 70.5462 5.53067 70.5462 6.742C70.5462 7.938 70.2625 8.973 69.6952 9.847C69.1278 10.7057 68.3228 11.365 67.2802 11.825C66.2375 12.285 64.9955 12.515 63.5542 12.515H58.6552L60.3112 10.882V17H56.5852ZM66.8202 17L62.7952 11.158H66.7742L70.8452 17H66.8202ZM60.3112 11.296L58.6552 9.548H63.3472C64.4972 9.548 65.3558 9.30267 65.9232 8.812C66.4905 8.306 66.7742 7.616 66.7742 6.742C66.7742 5.85267 66.4905 5.16267 65.9232 4.672C65.3558 4.18133 64.4972 3.936 63.3472 3.936H58.6552L60.3112 2.165V11.296ZM84.8833 13.32L84.6763 9.019L92.3813 0.899999H96.5213L89.5753 8.375L87.5053 10.583L84.8833 13.32ZM81.5483 17V0.899999H85.2513V17H81.5483ZM92.5653 17L86.8383 9.985L89.2763 7.34L96.9123 17H92.5653Z" fill="#F9FDFE"></path>
</svg>
